<?xml version="1.0" standalone="no"?>
<!DOCTYPE svg PUBLIC "-//W3C//DTD SVG 20010904//EN"
 "http://www.w3.org/TR/2001/REC-SVG-20010904/DTD/svg10.dtd">
<svg version="1.0" xmlns="http://www.w3.org/2000/svg"
 width="135.000000pt" height="45.000000pt" viewBox="0 0 135.000000 45.000000"
 preserveAspectRatio="xMidYMid meet">

<g transform="translate(0.000000,45.000000) scale(0.100000,-0.100000)"
fill="#000000" stroke="none">
<path d="M87 424 c-4 -4 -7 -92 -7 -195 0 -149 3 -188 14 -192 26 -10 36 17
36 100 0 92 16 123 65 123 49 0 65 -31 65 -124 0 -57 4 -87 13 -95 25 -20 37
9 37 93 0 87 -18 133 -60 156 -25 14 -68 16 -97 7 -21 -8 -22 -5 -25 60 -2 52
-7 68 -18 71 -9 1 -19 0 -23 -4z"/>
<path d="M1127 424 c-4 -4 -7 -27 -7 -51 0 -37 3 -44 18 -41 13 3 17 13 17 47
0 41 -12 61 -28 45z"/>
<path d="M701 302 c-71 -11 -93 -55 -89 -178 2 -71 6 -89 18 -89 12 0 16 19
20 93 4 83 8 96 29 113 31 26 57 24 86 -6 23 -22 25 -32 25 -108 0 -64 4 -86
14 -90 23 -9 26 2 26 104 0 87 -2 101 -22 124 -25 28 -69 43 -107 37z"/>
<path d="M932 295 c-94 -40 -80 -234 18 -258 49 -11 115 11 115 38 0 13 -5 19
-15 16 -60 -14 -92 -13 -110 4 -11 10 -20 26 -20 36 0 16 11 19 78 21 l77 3
-1 48 c0 37 -6 53 -25 72 -30 29 -75 37 -117 20z m86 -47 c5 -7 13 -23 16 -35
7 -22 5 -23 -53 -23 -54 0 -61 2 -61 19 0 42 72 70 98 39z"/>
<path d="M347 283 c-9 -14 -5 -157 5 -183 34 -91 150 -106 199 -26 25 41 28
203 4 213 -25 9 -28 -1 -30 -92 -2 -95 -17 -125 -65 -125 -53 0 -65 20 -70
122 -4 76 -8 93 -22 96 -9 2 -18 -1 -21 -5z"/>
<path d="M1120 187 c0 -131 11 -150 86 -151 43 -1 49 2 49 19 0 16 -8 21 -37
23 -51 4 -59 19 -56 99 l3 68 45 5 c31 3 45 10 45 20 0 12 -15 16 -67 18 l-68
3 0 -104z"/>
</g>
</svg>
